<svg xmlns="http://www.w3.org/2000/svg" fill="none" overflow="visible" preserveAspectRatio="xMidYMid meet" style="display:block" viewBox="0 0 273.88 273.88"><path fill="var(--fill-0, #00cc66)" d="M136.94 0c75.63 0 136.94 61.31 136.94 136.94s-61.31 136.94-136.94 136.94S0 212.57 0 136.94 61.31 0 136.94 0m-15.22 60.86c-27.31 0-49.45 22.14-49.45 49.45v3.53c0 4.04-1.61 7.91-4.46 10.76l-7.86 7.86a6.325 6.325 0 0 0 0 8.96l7.86 7.86a15.18 15.18 0 0 1 4.46 10.76v3.53c0 27.31 22.14 49.449 49.45 49.45h29.98c27.34-.001 49.83-22.01 49.89-49.35.02-9.87-2.85-19.07-7.82-26.8-4.17-6.49-5.79-14.33-4.37-21.91.49-2.61.76-5.29.78-8.04.23-25.33-20.8-46.06-46.13-46.06zm-17.11 45.65c3.65 0 6.95 1.47 9.36 3.85a13.28 13.28 0 0 1 3.95 9.02v.45l-.004.33c-.179 7.123-5.959 12.861-13.096 12.97h-.21c-.37 0-.73-.02-1.09-.04-6.49-.52-11.66-5.7-12.18-12.18a13.8 13.8 0 0 1 .32-4.19 13.15 13.15 0 0 1 2.42-5.05c2.43-3.14 6.24-5.16 10.53-5.16"/></svg>