<svg xmlns="http://www.w3.org/2000/svg" fill="none" overflow="visible" preserveAspectRatio="xMidYMid meet" style="display:block" viewBox="0 0 677.08 123.84"><path fill="var(--fill-0, #003333)" d="M667.75 32.48c5.05 0 9.33 3.89 9.33 9.07 0 1.55-.52 3.76-.91 4.66l-24.24 58.19c-5.83 14.13-11.66 19.44-23.46 19.44-4.41 0-7.52-.65-10.75-1.81l.01.01c-2.85-1.04-6.22-3.37-6.22-8.17s3.76-8.03 7.78-8.03c1.56 0 2.46.26 3.24.52 1.68.52 2.72.78 4.15.78 3.5 0 5.19-.65 7-4.15l.65-1.56-23.72-54.95c-.52-1.3-1.04-3.24-1.04-4.54 0-5.57 4.28-9.46 9.72-9.46 4.92 0 7.78 2.72 9.46 7.39l15.03 40.43L658.29 40c1.56-4.15 4.41-7.52 9.46-7.52M42.12 11.41c10.37 0 18.53 2.85 23.72 8.04 4.15 4.15 6.22 9.2 6.22 15.42v.26c0 10.24-5.44 15.94-11.92 19.57 10.5 4.02 16.98 10.68 16.98 22.87v.26c0 16.59-13.48 24.88-33.96 24.88H9.98C4.41 102.71 0 98.3 0 92.73V21.39c0-5.57 4.41-9.98 9.98-9.98zm201.37.01c5.44 0 9.85 4.41 9.85 9.85v71.59c0 5.44-4.41 9.85-9.85 9.85s-9.85-4.41-9.85-9.85v-.91c-4.79 6.48-11.4 10.76-21.64 10.76-16.2 0-31.62-11.38-31.62-34.58v-.26c0-23.2 15.16-35.38 31.62-35.38 10.5 0 16.98 4.28 21.64 9.85V21.27c0-5.44 4.41-9.85 9.85-9.85m168.19 21.07c5.44 0 9.85 4.41 9.85 9.85v50.52h.01c0 5.44-4.41 9.85-9.85 9.85s-9.85-4.41-9.85-9.85v-.78c-4.54 5.83-10.37 10.63-20.35 10.63-14.9 0-23.59-8.53-23.59-24.47v-35.9c0-5.44 4.41-9.85 9.85-9.85s9.85 4.41 9.85 9.85v29.68c0 9.33 4.41 14.13 11.92 14.13s12.31-4.79 12.31-14.13V42.34c0-5.44 4.41-9.85 9.85-9.85m87.48-21.07c5.44 0 9.85 4.41 9.85 9.85v71.59c0 5.44-4.41 9.85-9.85 9.85s-9.85-4.41-9.85-9.85v-.91c-4.79 6.48-11.4 10.76-21.64 10.76-16.2 0-31.62-11.38-31.62-34.58v-.26c0-23.2 15.16-35.38 31.62-35.38 10.5 0 16.98 4.28 21.64 9.85V21.27c0-5.44 4.41-9.85 9.85-9.85m87.47 0c5.44 0 9.85 4.41 9.85 9.85v71.59c0 5.44-4.41 9.85-9.85 9.85s-9.85-4.41-9.85-9.85v-.91c-4.79 6.48-11.4 10.76-21.64 10.76-16.2 0-31.619-11.38-31.619-34.58v-.26c0-23.2 15.159-35.38 31.619-35.38 10.5 0 16.98 4.28 21.64 9.85V21.27c.001-5.44 4.41-9.85 9.85-9.85M102.24 32.48c5.44 0 9.85 4.41 9.85 9.85v50.52c0 5.44-4.41 9.85-9.85 9.85s-9.85-4.41-9.85-9.85V42.33c0-5.44 4.41-9.85 9.85-9.85m61.43 0c5.83 0 9.59 4.02 9.59 9.59 0 5.18-3.37 8.29-7.39 9.2-9.98 2.33-15.55 9.98-15.55 23.98v17.6c0 5.44-4.41 9.85-9.85 9.85s-9.85-4.41-9.85-9.85V42.33c0-5.44 4.41-9.85 9.85-9.85s9.85 4.41 9.85 9.85v3.11c2.85-6.74 7.52-12.96 13.35-12.96m117.14-21.07c5.439 0 9.85 4.41 9.85 9.85v21.07c4.66-5.57 11.15-9.85 21.64-9.85 16.46 0 31.62 12.18 31.62 35.38v.26c0 23.2-15.42 34.58-31.62 34.58-10.24 0-16.85-4.28-21.64-10.76v.91c0 5.44-4.41 9.85-9.85 9.85s-9.85-4.41-9.85-9.85V21.26c0-5.44 4.41-9.85 9.85-9.85m-63.76 37.28c-9.2 0-16.98 7.52-16.98 19.18v.26c0 11.54 7.78 19.18 16.98 19.18s16.85-7.65 16.85-19.18v-.26c0-11.54-7.65-19.18-16.85-19.18m255.67 0c-9.2 0-16.98 7.52-16.98 19.18v.26c0 11.54 7.78 19.18 16.98 19.18s16.85-7.65 16.85-19.18v-.26c0-11.54-7.65-19.18-16.85-19.18m87.47 0c-9.2 0-16.98 7.52-16.98 19.18v.26c0 11.54 7.78 19.18 16.98 19.18s16.85-7.65 16.85-19.18v-.26c0-11.54-7.65-19.18-16.85-19.18m-252.94-.01c-9.2 0-16.85 7.65-16.85 19.18v.26c0 11.54 7.65 19.18 16.85 19.18s16.98-7.65 16.98-19.18v-.26c0-11.66-7.78-19.18-16.98-19.18M19.44 85.21h23.71c8.81 0 14.13-3.11 14.13-9.85v-.26c0-6.09-4.54-9.85-14.77-9.85H19.44zm0-37.12h18.4c8.81 0 14.39-2.85 14.39-9.59v-.26c0-5.96-4.67-9.33-13.09-9.33h-19.7zM102.24 0c6.302 0 11.41 5.109 11.41 11.41s-5.108 11.41-11.41 11.41c-6.301 0-11.41-5.108-11.41-11.41C90.83 5.11 95.94 0 102.24 0"/></svg>