<svg xmlns="http://www.w3.org/2000/svg" fill="none" overflow="visible" preserveAspectRatio="xMidYMid meet" style="display:block" viewBox="0 0 133 36"><path fill="var(--fill-0, white)" d="M17.866 0c9.867 0 17.865 8.059 17.865 18s-7.998 18-17.865 18S0 27.941 0 18 8 0 17.866 0M15.88 8c-3.563 0-6.451 2.91-6.451 6.5v.464c0 .53-.21 1.04-.582 1.414L7.82 17.41a.836.836 0 0 0 0 1.178l1.026 1.033c.373.375.582.883.582 1.414v.464c0 3.59 2.888 6.5 6.45 6.5h3.913c3.567 0 6.5-2.893 6.509-6.486a6.5 6.5 0 0 0-1.02-3.523 4 4 0 0 1-.571-2.88q.097-.515.101-1.057C24.842 10.724 22.098 8 18.795 8zm115.903 6.77c.659 0 1.217.51 1.217 1.19 0 .205-.068.496-.119.614l-3.162 7.649c-.761 1.857-1.521 2.555-3.061 2.555-.575 0-.981-.085-1.402-.238l.001.001c-.372-.137-.811-.443-.812-1.073 0-.631.491-1.056 1.015-1.056.203 0 .321.034.423.069.219.068.355.102.542.102.456 0 .677-.086.913-.546l.085-.205-3.095-7.223a1.9 1.9 0 0 1-.136-.596c0-.732.558-1.243 1.268-1.244.642 0 1.015.358 1.234.971l1.961 5.315 1.894-5.297c.203-.546.575-.988 1.234-.988M50.16 12c1.353 0 2.418.374 3.095 1.057.541.545.811 1.209.811 2.026v.034c0 1.346-.71 2.095-1.555 2.572 1.37.529 2.216 1.405 2.216 3.007v.034c0 2.18-1.76 3.27-4.431 3.27h-4.33c-.726 0-1.301-.58-1.301-1.311v-9.377c0-.733.575-1.312 1.302-1.312zm26.272.001c.71 0 1.285.58 1.285 1.295v9.41A1.29 1.29 0 0 1 76.432 24a1.29 1.29 0 0 1-1.285-1.294v-.12c-.625.852-1.488 1.414-2.824 1.414-2.113 0-4.125-1.495-4.125-4.545v-.034c0-3.05 1.978-4.65 4.125-4.65 1.37 0 2.216.562 2.824 1.294v-2.77a1.29 1.29 0 0 1 1.285-1.294m21.943 2.77c.71 0 1.284.58 1.284 1.294v6.641h.002A1.29 1.29 0 0 1 98.376 24a1.29 1.29 0 0 1-1.285-1.294v-.102C96.499 23.37 95.738 24 94.436 24c-1.944 0-3.078-1.12-3.078-3.216v-4.719a1.29 1.29 0 0 1 1.286-1.295c.71 0 1.285.58 1.285 1.295v3.902c0 1.226.575 1.856 1.554 1.856s1.607-.629 1.607-1.856v-3.902a1.29 1.29 0 0 1 1.285-1.295M109.788 12c.71 0 1.284.58 1.284 1.295v9.41c0 .715-.574 1.294-1.284 1.294a1.29 1.29 0 0 1-1.285-1.294v-.12c-.625.852-1.488 1.414-2.823 1.414-2.114 0-4.126-1.495-4.126-4.545v-.034c0-3.05 1.978-4.65 4.126-4.65 1.369 0 2.215.562 2.823 1.294v-2.77A1.29 1.29 0 0 1 109.788 12m11.411 0c.71 0 1.285.58 1.285 1.295v9.41A1.29 1.29 0 0 1 121.199 24a1.29 1.29 0 0 1-1.285-1.294v-.12c-.625.852-1.487 1.414-2.823 1.414-2.114 0-4.125-1.495-4.125-4.545v-.034c0-3.05 1.977-4.65 4.125-4.65 1.37 0 2.215.562 2.823 1.294v-2.77a1.29 1.29 0 0 1 1.285-1.294M58.004 14.77c.71 0 1.284.579 1.284 1.294v6.64A1.29 1.29 0 0 1 58.004 24a1.29 1.29 0 0 1-1.285-1.295v-6.64a1.29 1.29 0 0 1 1.285-1.294m8.014 0c.76 0 1.251.527 1.251 1.26 0 .68-.44 1.09-.964 1.21-1.302.306-2.029 1.31-2.029 3.15v2.314A1.29 1.29 0 0 1 62.991 24a1.29 1.29 0 0 1-1.285-1.295v-6.64a1.29 1.29 0 0 1 1.285-1.294c.71 0 1.285.579 1.285 1.294v.409c.372-.886.981-1.703 1.742-1.703M81.3 12c.71 0 1.285.58 1.285 1.294v2.77c.608-.732 1.455-1.294 2.823-1.294 2.148 0 4.125 1.6 4.125 4.65v.034c0 3.05-2.011 4.545-4.125 4.545-1.336 0-2.198-.562-2.823-1.414v.12a1.29 1.29 0 0 1-1.285 1.294 1.29 1.29 0 0 1-1.285-1.295v-9.41A1.29 1.29 0 0 1 81.3 12m-8.319 4.9c-1.2 0-2.215.988-2.215 2.52v.035c0 1.517 1.015 2.522 2.215 2.522s2.199-1.006 2.199-2.522v-.034c0-1.517-.998-2.521-2.199-2.522m33.356 0c-1.2 0-2.215.988-2.215 2.52v.035c0 1.517 1.015 2.521 2.215 2.522s2.198-1.006 2.198-2.522v-.034c0-1.517-.998-2.522-2.198-2.522m11.412 0c-1.2 0-2.216.988-2.216 2.52v.035c0 1.517 1.016 2.522 2.216 2.522s2.198-1.006 2.198-2.522v-.034c0-1.517-.998-2.522-2.198-2.522m-33-.002c-1.2 0-2.198 1.006-2.198 2.522v.034c0 1.517.998 2.52 2.198 2.52s2.216-1.005 2.216-2.52v-.034c0-1.533-1.016-2.522-2.216-2.522M47.201 21.7h3.093c1.15 0 1.844-.409 1.844-1.295v-.034c0-.8-.593-1.295-1.927-1.295H47.2zM13.648 14c.476 0 .907.193 1.221.506.305.303.5.722.516 1.185v.059c0 .957-.764 1.734-1.71 1.749h-.027a1.743 1.743 0 0 1-1.737-1.749q.001-.21.047-.408c.057-.246.168-.47.316-.663A1.73 1.73 0 0 1 13.648 14m33.553 2.821h2.4c1.15 0 1.877-.375 1.877-1.26v-.035c0-.783-.608-1.226-1.706-1.226h-2.57zM58.004 10.5c.822 0 1.488.672 1.488 1.5s-.666 1.499-1.488 1.499-1.49-.67-1.49-1.499c0-.828.668-1.5 1.49-1.5"/></svg>